<svg xmlns="http://www.w3.org/2000/svg" viewBox="0 0 40 40" width="40" height="40">
	<style>
		tspan { white-space:pre }
		.shp0 { fill: #7a24ab } 
	</style>
	<path id="Layer" fill-rule="evenodd" class="shp0" d="M0.62 20.31C0.62 17.73 1.13 15.16 2.12 12.78C3.11 10.39 4.56 8.22 6.39 6.39C8.22 4.56 10.39 3.11 12.78 2.12C15.16 1.13 17.73 0.62 20.31 0.62C28.27 0.62 35.45 5.42 38.5 12.78C41.55 20.13 39.86 28.6 34.23 34.23C28.6 39.86 20.13 41.55 12.78 38.5C5.42 35.45 0.62 28.27 0.62 20.31ZM16.2 27.98C15.86 28.32 15.66 28.78 15.66 29.27C15.66 29.75 15.86 30.22 16.2 30.56C16.54 30.9 17.01 31.09 17.49 31.09C17.98 31.09 18.44 30.89 18.79 30.55L27.69 21.62C27.84 21.45 27.96 21.25 28.05 21.03C28.13 20.82 28.17 20.59 28.16 20.35C28.16 20.12 28.11 19.89 28.01 19.68C27.92 19.46 27.79 19.27 27.63 19.11L18.6 10.05C18.25 9.71 17.79 9.51 17.3 9.51C16.82 9.51 16.36 9.71 16.01 10.05C15.67 10.39 15.48 10.86 15.48 11.34C15.48 11.83 15.67 12.29 16.01 12.63L23.77 20.31L16.2 27.98Z" />
</svg>